<svg xmlns="http://www.w3.org/2000/svg" version="1.1" xmlns:xlink="http://www.w3.org/1999/xlink" xmlns:svgjs="http://svgjs.dev/svgjs" width="1440" height="560" preserveAspectRatio="none" viewBox="0 0 1440 560">
    <g mask="url(&quot;#SvgjsMask1002&quot;)" fill="none">
        <rect width="1440" height="560" x="0" y="0" fill="rgba(236, 223, 232, 1)"></rect>
        <path d="M0,603.508C109.745,621.824,191.524,503.765,286.437,445.705C383.899,386.085,530.472,366.917,564.867,257.966C600.001,146.676,467.223,50.683,447.453,-64.334C428.532,-174.41,513.342,-298.551,453.048,-392.569C393.06,-486.109,264.588,-520.572,153.486,-522.726C52.482,-524.684,-19.308,-422.683,-118.522,-403.649C-234.651,-381.369,-375.607,-479.997,-466.08,-403.86C-552.876,-330.817,-494.035,-185.637,-510.889,-73.455C-527.884,39.663,-627.685,162.235,-565.561,258.283C-500.972,358.14,-332.452,297.394,-230.944,359.356C-133.349,418.929,-112.78,584.685,0,603.508" fill="#caa5bf"></path>
        <path d="M1440 1081.347C1563.611 1107.6280000000002 1705.588 1206.644 1807.909 1132.4769999999999 1912.076 1056.972 1826.724 878.04 1881.247 761.511 1936.62 643.165 2113.033 592.375 2121.622 461.998 2130.051 334.054 2020.24 224.75599999999997 1922.04 142.31 1831.972 66.69200000000001 1710.4180000000001 56.44900000000001 1597.887 22.287000000000035 1484.155-12.239000000000033 1369.606-100.59000000000003 1258.18-59.22199999999998 1146.463-17.74599999999998 1126.895 131.16699999999997 1052.933 224.60500000000002 983.35 312.51099999999997 847.342 361.651 836.692 473.257 825.994 585.358 942.4300000000001 664.436 1001.831 760.105 1052.684 842.0070000000001 1082.796 937.841 1160.5439999999999 994.842 1240.812 1053.69 1342.647 1060.649 1440 1081.347" fill="#ffffff"></path>
    </g>
    <defs>
        <mask id="SvgjsMask1002">
            <rect width="1440" height="560" fill="#ffffff"></rect>
        </mask>
    </defs>
</svg>